<svg width="33" height="35" viewBox="0 0 33 35" fill="none" xmlns="http://www.w3.org/2000/svg">
<g filter="url(#filter0_d_307_2069)">
<path d="M21.2824 21H15.8426C15.6011 21.0001 15.3678 21.0844 15.1852 21.2375L9.28125 26V21H6.1875C5.914 21 5.65169 20.8946 5.4583 20.7071C5.2649 20.5196 5.15625 20.2652 5.15625 20V2C5.15625 1.73478 5.2649 1.48043 5.4583 1.29289C5.65169 1.10536 5.914 1 6.1875 1H26.8125C27.086 1 27.3483 1.10536 27.5417 1.29289C27.7351 1.48043 27.8438 1.73478 27.8438 2V15.5375C27.8417 15.6832 27.8072 15.8267 27.7427 15.9583C27.6782 16.0899 27.5851 16.2065 27.4699 16.3L21.9398 20.7625C21.7572 20.9156 21.5239 20.9999 21.2824 21Z" stroke="#9A35FF" stroke-width="2" stroke-linecap="round" stroke-linejoin="round" shape-rendering="crispEdges"/>
</g>
<defs>
<filter id="filter0_d_307_2069" x="0.15625" y="0" width="32.6875" height="35" filterUnits="userSpaceOnUse" color-interpolation-filters="sRGB">
<feFlood flood-opacity="0" result="BackgroundImageFix"/>
<feColorMatrix in="SourceAlpha" type="matrix" values="0 0 0 0 0 0 0 0 0 0 0 0 0 0 0 0 0 0 127 0" result="hardAlpha"/>
<feOffset dy="4"/>
<feGaussianBlur stdDeviation="2"/>
<feComposite in2="hardAlpha" operator="out"/>
<feColorMatrix type="matrix" values="0 0 0 0 0 0 0 0 0 0 0 0 0 0 0 0 0 0 0.25 0"/>
<feBlend mode="normal" in2="BackgroundImageFix" result="effect1_dropShadow_307_2069"/>
<feBlend mode="normal" in="SourceGraphic" in2="effect1_dropShadow_307_2069" result="shape"/>
</filter>
</defs>
</svg>
